%TF.GenerationSoftware,KiCad,Pcbnew,9.0.0*%
%TF.CreationDate,2025-03-20T17:00:12-04:00*%
%TF.ProjectId,BigCoilBoard,42696743-6f69-46c4-926f-6172642e6b69,rev?*%
%TF.SameCoordinates,Original*%
%TF.FileFunction,Soldermask,Top*%
%TF.FilePolarity,Negative*%
%FSLAX46Y46*%
G04 Gerber Fmt 4.6, Leading zero omitted, Abs format (unit mm)*
G04 Created by KiCad (PCBNEW 9.0.0) date 2025-03-20 17:00:12*
%MOMM*%
%LPD*%
G01*
G04 APERTURE LIST*
G04 Aperture macros list*
%AMRoundRect*
0 Rectangle with rounded corners*
0 $1 Rounding radius*
0 $2 $3 $4 $5 $6 $7 $8 $9 X,Y pos of 4 corners*
0 Add a 4 corners polygon primitive as box body*
4,1,4,$2,$3,$4,$5,$6,$7,$8,$9,$2,$3,0*
0 Add four circle primitives for the rounded corners*
1,1,$1+$1,$2,$3*
1,1,$1+$1,$4,$5*
1,1,$1+$1,$6,$7*
1,1,$1+$1,$8,$9*
0 Add four rect primitives between the rounded corners*
20,1,$1+$1,$2,$3,$4,$5,0*
20,1,$1+$1,$4,$5,$6,$7,0*
20,1,$1+$1,$6,$7,$8,$9,0*
20,1,$1+$1,$8,$9,$2,$3,0*%
G04 Aperture macros list end*
%ADD10RoundRect,0.150000X0.150000X-0.512500X0.150000X0.512500X-0.150000X0.512500X-0.150000X-0.512500X0*%
%ADD11R,2.000000X2.000000*%
%ADD12C,0.800000*%
%ADD13C,5.400000*%
%ADD14RoundRect,0.250000X-0.262500X-0.450000X0.262500X-0.450000X0.262500X0.450000X-0.262500X0.450000X0*%
%ADD15RoundRect,0.250000X0.250000X0.475000X-0.250000X0.475000X-0.250000X-0.475000X0.250000X-0.475000X0*%
%ADD16RoundRect,0.250000X-0.620000X-0.845000X0.620000X-0.845000X0.620000X0.845000X-0.620000X0.845000X0*%
%ADD17O,1.740000X2.190000*%
%ADD18C,0.900000*%
%ADD19C,8.600000*%
%ADD20RoundRect,0.250000X-0.475000X0.250000X-0.475000X-0.250000X0.475000X-0.250000X0.475000X0.250000X0*%
%ADD21R,1.397000X1.397000*%
%ADD22C,1.397000*%
%ADD23RoundRect,0.250000X0.262500X0.450000X-0.262500X0.450000X-0.262500X-0.450000X0.262500X-0.450000X0*%
%ADD24RoundRect,0.250000X-0.450000X0.262500X-0.450000X-0.262500X0.450000X-0.262500X0.450000X0.262500X0*%
%ADD25RoundRect,0.250000X-0.250000X-0.475000X0.250000X-0.475000X0.250000X0.475000X-0.250000X0.475000X0*%
%ADD26O,1.800000X1.800000*%
%ADD27R,1.800000X1.800000*%
%ADD28RoundRect,0.150000X0.150000X-0.825000X0.150000X0.825000X-0.150000X0.825000X-0.150000X-0.825000X0*%
%ADD29R,1.700000X1.700000*%
%ADD30O,1.700000X1.700000*%
%ADD31R,1.000000X1.000000*%
%ADD32O,1.000000X1.000000*%
%ADD33RoundRect,0.250000X-0.845000X0.620000X-0.845000X-0.620000X0.845000X-0.620000X0.845000X0.620000X0*%
%ADD34O,2.190000X1.740000*%
%ADD35C,1.400000*%
%ADD36C,4.300000*%
%ADD37C,3.200000*%
%ADD38RoundRect,0.150000X0.825000X0.150000X-0.825000X0.150000X-0.825000X-0.150000X0.825000X-0.150000X0*%
%ADD39R,1.500000X1.500000*%
%ADD40C,1.500000*%
%ADD41RoundRect,0.150000X-0.587500X-0.150000X0.587500X-0.150000X0.587500X0.150000X-0.587500X0.150000X0*%
%ADD42RoundRect,0.075000X-0.662500X-0.075000X0.662500X-0.075000X0.662500X0.075000X-0.662500X0.075000X0*%
%ADD43RoundRect,0.075000X-0.075000X-0.662500X0.075000X-0.662500X0.075000X0.662500X-0.075000X0.662500X0*%
%ADD44R,1.900000X0.400000*%
%ADD45RoundRect,0.225000X-0.225000X-0.375000X0.225000X-0.375000X0.225000X0.375000X-0.225000X0.375000X0*%
%ADD46RoundRect,0.150000X0.150000X-0.587500X0.150000X0.587500X-0.150000X0.587500X-0.150000X-0.587500X0*%
%ADD47RoundRect,0.250000X0.275000X0.700000X-0.275000X0.700000X-0.275000X-0.700000X0.275000X-0.700000X0*%
%ADD48RoundRect,0.243750X-0.456250X0.243750X-0.456250X-0.243750X0.456250X-0.243750X0.456250X0.243750X0*%
%ADD49RoundRect,0.250000X0.450000X-0.262500X0.450000X0.262500X-0.450000X0.262500X-0.450000X-0.262500X0*%
%ADD50O,1.700000X1.600000*%
%ADD51C,1.600000*%
%ADD52O,1.600000X1.600000*%
%ADD53RoundRect,0.250000X0.312500X1.075000X-0.312500X1.075000X-0.312500X-1.075000X0.312500X-1.075000X0*%
%ADD54RoundRect,0.375000X-0.625000X-0.375000X0.625000X-0.375000X0.625000X0.375000X-0.625000X0.375000X0*%
%ADD55RoundRect,0.500000X-0.500000X-1.400000X0.500000X-1.400000X0.500000X1.400000X-0.500000X1.400000X0*%
%ADD56RoundRect,0.150000X-0.150000X0.587500X-0.150000X-0.587500X0.150000X-0.587500X0.150000X0.587500X0*%
%ADD57RoundRect,0.250000X0.475000X-0.250000X0.475000X0.250000X-0.475000X0.250000X-0.475000X-0.250000X0*%
%ADD58R,2.000000X1.905000*%
%ADD59O,2.000000X1.905000*%
G04 APERTURE END LIST*
D10*
%TO.C,U8*%
X155978680Y-75653680D03*
X156928680Y-75653680D03*
X157878680Y-75653680D03*
X157878680Y-73378680D03*
X155978680Y-73378680D03*
%TD*%
D11*
%TO.C,TP3*%
X198750000Y-102250000D03*
%TD*%
D12*
%TO.C,H1*%
X126853680Y-69628680D03*
X127446789Y-68196789D03*
X127446789Y-71060571D03*
X128878680Y-67603680D03*
D13*
X128878680Y-69628680D03*
D12*
X128878680Y-71653680D03*
X130310571Y-68196789D03*
X130310571Y-71060571D03*
X130903680Y-69628680D03*
%TD*%
D14*
%TO.C,R16*%
X196909947Y-109530053D03*
X198734947Y-109530053D03*
%TD*%
D15*
%TO.C,C28*%
X152450000Y-60750000D03*
X150550000Y-60750000D03*
%TD*%
D16*
%TO.C,J9*%
X125000000Y-50750000D03*
D17*
X127540000Y-50750000D03*
%TD*%
D18*
%TO.C,H6*%
X222305419Y-51030419D03*
X223250000Y-48750000D03*
X223250000Y-53310838D03*
X225530419Y-47805419D03*
D19*
X225530419Y-51030419D03*
D18*
X225530419Y-54255419D03*
X227810838Y-48750000D03*
X227810838Y-53310838D03*
X228755419Y-51030419D03*
%TD*%
D15*
%TO.C,C8*%
X178200000Y-86500000D03*
X176300000Y-86500000D03*
%TD*%
D11*
%TO.C,TP5*%
X194250000Y-97750000D03*
%TD*%
D20*
%TO.C,C25*%
X201000000Y-85300000D03*
X201000000Y-87200000D03*
%TD*%
D21*
%TO.C,C30*%
X135500000Y-61000000D03*
D22*
X130500000Y-61000000D03*
%TD*%
D20*
%TO.C,C21*%
X203500000Y-85300000D03*
X203500000Y-87200000D03*
%TD*%
D23*
%TO.C,R21*%
X186412500Y-70750000D03*
X184587500Y-70750000D03*
%TD*%
D24*
%TO.C,R32*%
X194250000Y-81500000D03*
X194250000Y-83325000D03*
%TD*%
D25*
%TO.C,C40*%
X183800000Y-100750000D03*
X185700000Y-100750000D03*
%TD*%
D24*
%TO.C,R7*%
X118770000Y-106067500D03*
X118770000Y-107892500D03*
%TD*%
D26*
%TO.C,K1*%
X113167500Y-63832500D03*
X113167500Y-56832500D03*
D27*
X108467500Y-75332500D03*
D26*
X113167500Y-75332500D03*
%TD*%
D28*
%TO.C,U2*%
X205710000Y-89475000D03*
X206980000Y-89475000D03*
X208250000Y-89475000D03*
X209520000Y-89475000D03*
X209520000Y-84525000D03*
X208250000Y-84525000D03*
X206980000Y-84525000D03*
X205710000Y-84525000D03*
%TD*%
D29*
%TO.C,J2*%
X162838680Y-69878680D03*
D30*
X165378680Y-69878680D03*
%TD*%
D15*
%TO.C,C18*%
X209615000Y-82087500D03*
X207715000Y-82087500D03*
%TD*%
%TO.C,C32*%
X213400000Y-109000000D03*
X211500000Y-109000000D03*
%TD*%
D24*
%TO.C,R8*%
X110500000Y-94087500D03*
X110500000Y-95912500D03*
%TD*%
D31*
%TO.C,J16*%
X185250000Y-79250000D03*
D32*
X185250000Y-80520000D03*
X183980000Y-79250000D03*
X183980000Y-80520000D03*
X182710000Y-79250000D03*
X182710000Y-80520000D03*
X181440000Y-79250000D03*
X181440000Y-80520000D03*
X180170000Y-79250000D03*
X180170000Y-80520000D03*
%TD*%
D23*
%TO.C,R11*%
X209462500Y-96500000D03*
X207637500Y-96500000D03*
%TD*%
D33*
%TO.C,J10*%
X224500000Y-78460000D03*
D34*
X224500000Y-81000000D03*
%TD*%
D25*
%TO.C,C26*%
X226800000Y-73250000D03*
X228700000Y-73250000D03*
%TD*%
D35*
%TO.C,U11*%
X178009947Y-119125053D03*
X180549947Y-119125053D03*
%TD*%
D23*
%TO.C,R19*%
X178734947Y-109280053D03*
X176909947Y-109280053D03*
%TD*%
D36*
%TO.C,J22*%
X185185000Y-51565000D03*
D37*
X182250000Y-54500000D03*
X188120000Y-54500000D03*
X182250000Y-48630000D03*
X188120000Y-48630000D03*
%TD*%
D38*
%TO.C,U7*%
X228475000Y-71155000D03*
X228475000Y-69885000D03*
X228475000Y-68615000D03*
X228475000Y-67345000D03*
X223525000Y-67345000D03*
X223525000Y-68615000D03*
X223525000Y-69885000D03*
X223525000Y-71155000D03*
%TD*%
D29*
%TO.C,J6*%
X160378680Y-103878680D03*
D30*
X162918680Y-103878680D03*
X165458680Y-103878680D03*
%TD*%
D39*
%TO.C,C48*%
X212000000Y-59250000D03*
D40*
X212000000Y-51750000D03*
%TD*%
D23*
%TO.C,R25*%
X151112500Y-79062500D03*
X149287500Y-79062500D03*
%TD*%
D21*
%TO.C,C35*%
X224250000Y-107833250D03*
D22*
X224250000Y-102833250D03*
%TD*%
D16*
%TO.C,J7*%
X165710000Y-62500000D03*
D17*
X168250000Y-62500000D03*
X170790000Y-62500000D03*
X173330000Y-62500000D03*
%TD*%
D18*
%TO.C,H7*%
X107805419Y-50969581D03*
X108750000Y-48689162D03*
X108750000Y-53250000D03*
X111030419Y-47744581D03*
D19*
X111030419Y-50969581D03*
D18*
X111030419Y-54194581D03*
X113310838Y-48689162D03*
X113310838Y-53250000D03*
X114255419Y-50969581D03*
%TD*%
D16*
%TO.C,J13*%
X110500000Y-89250000D03*
D17*
X113040000Y-89250000D03*
%TD*%
D24*
%TO.C,R9*%
X118770000Y-94087500D03*
X118770000Y-95912500D03*
%TD*%
D15*
%TO.C,C5*%
X177750000Y-68500000D03*
X175850000Y-68500000D03*
%TD*%
D41*
%TO.C,Q1*%
X110812500Y-80300000D03*
X110812500Y-82200000D03*
X112687500Y-81250000D03*
%TD*%
D42*
%TO.C,U1*%
X178087500Y-88750000D03*
X178087500Y-89250000D03*
X178087500Y-89750000D03*
X178087500Y-90250000D03*
X178087500Y-90750000D03*
X178087500Y-91250000D03*
X178087500Y-91750000D03*
X178087500Y-92250000D03*
X178087500Y-92750000D03*
X178087500Y-93250000D03*
X178087500Y-93750000D03*
X178087500Y-94250000D03*
D43*
X179500000Y-95662500D03*
X180000000Y-95662500D03*
X180500000Y-95662500D03*
X181000000Y-95662500D03*
X181500000Y-95662500D03*
X182000000Y-95662500D03*
X182500000Y-95662500D03*
X183000000Y-95662500D03*
X183500000Y-95662500D03*
X184000000Y-95662500D03*
X184500000Y-95662500D03*
X185000000Y-95662500D03*
D42*
X186412500Y-94250000D03*
X186412500Y-93750000D03*
X186412500Y-93250000D03*
X186412500Y-92750000D03*
X186412500Y-92250000D03*
X186412500Y-91750000D03*
X186412500Y-91250000D03*
X186412500Y-90750000D03*
X186412500Y-90250000D03*
X186412500Y-89750000D03*
X186412500Y-89250000D03*
X186412500Y-88750000D03*
D43*
X185000000Y-87337500D03*
X184500000Y-87337500D03*
X184000000Y-87337500D03*
X183500000Y-87337500D03*
X183000000Y-87337500D03*
X182500000Y-87337500D03*
X182000000Y-87337500D03*
X181500000Y-87337500D03*
X181000000Y-87337500D03*
X180500000Y-87337500D03*
X180000000Y-87337500D03*
X179500000Y-87337500D03*
%TD*%
D16*
%TO.C,J14*%
X118750000Y-89270000D03*
D17*
X121290000Y-89270000D03*
%TD*%
D35*
%TO.C,U9*%
X197754947Y-119125053D03*
X199659947Y-119125053D03*
X201564947Y-119125053D03*
%TD*%
D29*
%TO.C,J1*%
X156088680Y-69878680D03*
D30*
X158628680Y-69878680D03*
%TD*%
D21*
%TO.C,C6*%
X202833250Y-70250000D03*
D22*
X197833250Y-70250000D03*
%TD*%
D14*
%TO.C,R14*%
X203887500Y-92000000D03*
X205712500Y-92000000D03*
%TD*%
D44*
%TO.C,U3*%
X175250000Y-92200000D03*
X175250000Y-91000000D03*
X175250000Y-89800000D03*
%TD*%
D24*
%TO.C,R33*%
X191750000Y-81412500D03*
X191750000Y-83237500D03*
%TD*%
D41*
%TO.C,D3*%
X211875000Y-96300000D03*
X211875000Y-98200000D03*
X213750000Y-97250000D03*
%TD*%
D16*
%TO.C,J8*%
X118460000Y-50750000D03*
D17*
X121000000Y-50750000D03*
%TD*%
D45*
%TO.C,D2*%
X118850000Y-78250000D03*
X122150000Y-78250000D03*
%TD*%
D25*
%TO.C,C15*%
X203850000Y-96500000D03*
X205750000Y-96500000D03*
%TD*%
D20*
%TO.C,C11*%
X113770000Y-106050000D03*
X113770000Y-107950000D03*
%TD*%
D46*
%TO.C,Q5*%
X144250000Y-76750000D03*
X146150000Y-76750000D03*
X145200000Y-74875000D03*
%TD*%
D45*
%TO.C,D1*%
X109100000Y-78250000D03*
X112400000Y-78250000D03*
%TD*%
D46*
%TO.C,Q4*%
X149250000Y-76750000D03*
X151150000Y-76750000D03*
X150200000Y-74875000D03*
%TD*%
D18*
%TO.C,H5*%
X107775000Y-118000000D03*
X108719581Y-115719581D03*
X108719581Y-120280419D03*
X111000000Y-114775000D03*
D19*
X111000000Y-118000000D03*
D18*
X111000000Y-121225000D03*
X113280419Y-115719581D03*
X113280419Y-120280419D03*
X114225000Y-118000000D03*
%TD*%
D33*
%TO.C,J17*%
X214730000Y-78440000D03*
D34*
X214730000Y-80980000D03*
X214730000Y-83520000D03*
X214730000Y-86060000D03*
%TD*%
D14*
%TO.C,R23*%
X215837500Y-96000000D03*
X217662500Y-96000000D03*
%TD*%
D47*
%TO.C,FB1*%
X186825000Y-105000000D03*
X183675000Y-105000000D03*
%TD*%
D48*
%TO.C,D5*%
X191750000Y-77637500D03*
X191750000Y-79512500D03*
%TD*%
D15*
%TO.C,C23*%
X193022447Y-109280053D03*
X191122447Y-109280053D03*
%TD*%
D24*
%TO.C,R34*%
X189250000Y-81500000D03*
X189250000Y-83325000D03*
%TD*%
D49*
%TO.C,R2*%
X108187500Y-82162500D03*
X108187500Y-80337500D03*
%TD*%
D24*
%TO.C,R1*%
X118750000Y-118168750D03*
X118750000Y-119993750D03*
%TD*%
D29*
%TO.C,U6*%
X177727500Y-59867500D03*
D30*
X180267500Y-59867500D03*
X187887500Y-59867500D03*
D50*
X190427500Y-59867500D03*
D30*
X192967500Y-59867500D03*
%TD*%
D23*
%TO.C,R20*%
X182662500Y-68500000D03*
X180837500Y-68500000D03*
%TD*%
D12*
%TO.C,H3*%
X126853680Y-119628680D03*
X127446789Y-118196789D03*
X127446789Y-121060571D03*
X128878680Y-117603680D03*
D13*
X128878680Y-119628680D03*
D12*
X128878680Y-121653680D03*
X130310571Y-118196789D03*
X130310571Y-121060571D03*
X130903680Y-119628680D03*
%TD*%
D23*
%TO.C,R29*%
X141200000Y-79062500D03*
X139375000Y-79062500D03*
%TD*%
D14*
%TO.C,R17*%
X187409947Y-109280053D03*
X189234947Y-109280053D03*
%TD*%
D16*
%TO.C,J24*%
X220460000Y-96000000D03*
D17*
X223000000Y-96000000D03*
X225540000Y-96000000D03*
X228080000Y-96000000D03*
%TD*%
D41*
%TO.C,Q2*%
X120750000Y-80350000D03*
X120750000Y-82250000D03*
X122625000Y-81300000D03*
%TD*%
D49*
%TO.C,R18*%
X184822447Y-109192553D03*
X184822447Y-107367553D03*
%TD*%
D29*
%TO.C,J3*%
X143298680Y-100878680D03*
D30*
X145838680Y-100878680D03*
X148378680Y-100878680D03*
%TD*%
D51*
%TO.C,R22*%
X222580000Y-90500000D03*
D52*
X212420000Y-90500000D03*
%TD*%
D14*
%TO.C,R24*%
X144287500Y-72562500D03*
X146112500Y-72562500D03*
%TD*%
D48*
%TO.C,D6*%
X189250000Y-77725000D03*
X189250000Y-79600000D03*
%TD*%
D26*
%TO.C,K2*%
X122917500Y-63832500D03*
X122917500Y-56832500D03*
D27*
X118217500Y-75332500D03*
D26*
X122917500Y-75332500D03*
%TD*%
D36*
%TO.C,J20*%
X159565000Y-51565000D03*
D37*
X156630000Y-54500000D03*
X162500000Y-54500000D03*
X156630000Y-48630000D03*
X162500000Y-48630000D03*
%TD*%
D20*
%TO.C,C12*%
X122020000Y-106030000D03*
X122020000Y-107930000D03*
%TD*%
D48*
%TO.C,D4*%
X194250000Y-77725000D03*
X194250000Y-79600000D03*
%TD*%
D16*
%TO.C,J12*%
X118750000Y-101250000D03*
D17*
X121290000Y-101250000D03*
%TD*%
D25*
%TO.C,C42*%
X184600000Y-68500000D03*
X186500000Y-68500000D03*
%TD*%
D12*
%TO.C,H4*%
X168853680Y-119560571D03*
X169446789Y-118128680D03*
X169446789Y-120992462D03*
X170878680Y-117535571D03*
D13*
X170878680Y-119628680D03*
D12*
X170878680Y-121585571D03*
X172310571Y-118128680D03*
X172310571Y-120992462D03*
X172903680Y-119560571D03*
%TD*%
D21*
%TO.C,C37*%
X210000000Y-119833250D03*
D22*
X210000000Y-114833250D03*
%TD*%
D14*
%TO.C,R13*%
X204002500Y-79837500D03*
X205827500Y-79837500D03*
%TD*%
D15*
%TO.C,C3*%
X198200000Y-58000000D03*
X196300000Y-58000000D03*
%TD*%
D20*
%TO.C,C14*%
X122020000Y-94050000D03*
X122020000Y-95950000D03*
%TD*%
D15*
%TO.C,C33*%
X217450000Y-109000000D03*
X215550000Y-109000000D03*
%TD*%
D49*
%TO.C,R3*%
X118000000Y-82262500D03*
X118000000Y-80437500D03*
%TD*%
D23*
%TO.C,R31*%
X136112500Y-79062500D03*
X134287500Y-79062500D03*
%TD*%
D20*
%TO.C,C31*%
X201500000Y-92100000D03*
X201500000Y-94000000D03*
%TD*%
D15*
%TO.C,C43*%
X115450000Y-110000000D03*
X113550000Y-110000000D03*
%TD*%
%TO.C,C44*%
X115450000Y-112250000D03*
X113550000Y-112250000D03*
%TD*%
D53*
%TO.C,R5*%
X221212500Y-68500000D03*
X218287500Y-68500000D03*
%TD*%
D54*
%TO.C,U12*%
X155350000Y-60450000D03*
X155350000Y-62750000D03*
D55*
X161650000Y-62750000D03*
D54*
X155350000Y-65050000D03*
%TD*%
D36*
%TO.C,J21*%
X171315000Y-51565000D03*
D37*
X168380000Y-54500000D03*
X174250000Y-54500000D03*
X168380000Y-48630000D03*
X174250000Y-48630000D03*
%TD*%
D46*
%TO.C,Q6*%
X139287500Y-76750000D03*
X141187500Y-76750000D03*
X140237500Y-74875000D03*
%TD*%
D16*
%TO.C,J19*%
X131460000Y-50750000D03*
D17*
X134000000Y-50750000D03*
X136540000Y-50750000D03*
X139080000Y-50750000D03*
%TD*%
D16*
%TO.C,J18*%
X142960000Y-50750000D03*
D17*
X145500000Y-50750000D03*
X148040000Y-50750000D03*
X150580000Y-50750000D03*
%TD*%
D14*
%TO.C,R28*%
X139375000Y-72562500D03*
X141200000Y-72562500D03*
%TD*%
D11*
%TO.C,TP4*%
X198750000Y-97750000D03*
%TD*%
D14*
%TO.C,R15*%
X204002500Y-82087500D03*
X205827500Y-82087500D03*
%TD*%
D56*
%TO.C,Q3*%
X182522447Y-107405053D03*
X180622447Y-107405053D03*
X181572447Y-109280053D03*
%TD*%
D28*
%TO.C,U13*%
X213845000Y-105975000D03*
X215115000Y-105975000D03*
X216385000Y-105975000D03*
X217655000Y-105975000D03*
X217655000Y-101025000D03*
X216385000Y-101025000D03*
X215115000Y-101025000D03*
X213845000Y-101025000D03*
%TD*%
D35*
%TO.C,U10*%
X187564947Y-119125053D03*
X189469947Y-119125053D03*
X191374947Y-119125053D03*
%TD*%
D11*
%TO.C,TP6*%
X194250000Y-102250000D03*
%TD*%
D36*
%TO.C,J23*%
X197185000Y-51565000D03*
D37*
X194250000Y-54500000D03*
X200120000Y-54500000D03*
X194250000Y-48630000D03*
X200120000Y-48630000D03*
%TD*%
D21*
%TO.C,C29*%
X146583250Y-61000000D03*
D22*
X141583250Y-61000000D03*
%TD*%
D25*
%TO.C,C1*%
X196300000Y-60500000D03*
X198200000Y-60500000D03*
%TD*%
D23*
%TO.C,R26*%
X146112500Y-79062500D03*
X144287500Y-79062500D03*
%TD*%
D57*
%TO.C,C10*%
X187000000Y-86700000D03*
X187000000Y-84800000D03*
%TD*%
D20*
%TO.C,C4*%
X122000000Y-118131250D03*
X122000000Y-120031250D03*
%TD*%
D25*
%TO.C,C41*%
X183800000Y-98750000D03*
X185700000Y-98750000D03*
%TD*%
D20*
%TO.C,C13*%
X113750000Y-94050000D03*
X113750000Y-95950000D03*
%TD*%
D25*
%TO.C,C19*%
X207715000Y-79837500D03*
X209615000Y-79837500D03*
%TD*%
D15*
%TO.C,C27*%
X152450000Y-63250000D03*
X150550000Y-63250000D03*
%TD*%
D57*
%TO.C,C36*%
X209250000Y-110700000D03*
X209250000Y-108800000D03*
%TD*%
D18*
%TO.C,H8*%
X222275000Y-118000000D03*
X223219581Y-115719581D03*
X223219581Y-120280419D03*
X225500000Y-114775000D03*
D19*
X225500000Y-118000000D03*
D18*
X225500000Y-121225000D03*
X227780419Y-115719581D03*
X227780419Y-120280419D03*
X228725000Y-118000000D03*
%TD*%
D25*
%TO.C,C9*%
X186800000Y-96750000D03*
X188700000Y-96750000D03*
%TD*%
D53*
%TO.C,R4*%
X221212500Y-72000000D03*
X218287500Y-72000000D03*
%TD*%
D16*
%TO.C,J11*%
X110500000Y-101270000D03*
D17*
X113040000Y-101270000D03*
%TD*%
D23*
%TO.C,R12*%
X209577500Y-77587500D03*
X207752500Y-77587500D03*
%TD*%
D25*
%TO.C,C20*%
X203965000Y-77587500D03*
X205865000Y-77587500D03*
%TD*%
D11*
%TO.C,TP2*%
X172000000Y-82500000D03*
%TD*%
D58*
%TO.C,U14*%
X217305000Y-113960000D03*
D59*
X217305000Y-116500000D03*
X217305000Y-119040000D03*
%TD*%
D15*
%TO.C,C22*%
X203272447Y-109530053D03*
X201372447Y-109530053D03*
%TD*%
D14*
%TO.C,R30*%
X134375000Y-72562500D03*
X136200000Y-72562500D03*
%TD*%
D46*
%TO.C,Q7*%
X134250000Y-76750000D03*
X136150000Y-76750000D03*
X135200000Y-74875000D03*
%TD*%
D25*
%TO.C,C34*%
X215800000Y-98250000D03*
X217700000Y-98250000D03*
%TD*%
D24*
%TO.C,R6*%
X110520000Y-106087500D03*
X110520000Y-107912500D03*
%TD*%
D12*
%TO.C,H2*%
X168853680Y-69628680D03*
X169446789Y-68196789D03*
X169446789Y-71060571D03*
X170878680Y-67603680D03*
D13*
X170878680Y-69628680D03*
D12*
X170878680Y-71653680D03*
X172310571Y-68196789D03*
X172310571Y-71060571D03*
X172903680Y-69628680D03*
%TD*%
D25*
%TO.C,C38*%
X211800000Y-94000000D03*
X213700000Y-94000000D03*
%TD*%
D14*
%TO.C,R10*%
X203887500Y-94250000D03*
X205712500Y-94250000D03*
%TD*%
%TO.C,R27*%
X149287500Y-72562500D03*
X151112500Y-72562500D03*
%TD*%
D25*
%TO.C,C39*%
X183800000Y-102750000D03*
X185700000Y-102750000D03*
%TD*%
D15*
%TO.C,C17*%
X209500000Y-92000000D03*
X207600000Y-92000000D03*
%TD*%
D16*
%TO.C,J5*%
X118750000Y-113331250D03*
D17*
X121290000Y-113331250D03*
%TD*%
D21*
%TO.C,C2*%
X214083250Y-70250000D03*
D22*
X209083250Y-70250000D03*
%TD*%
D25*
%TO.C,C16*%
X207600000Y-94250000D03*
X209500000Y-94250000D03*
%TD*%
M02*
