%TF.GenerationSoftware,KiCad,Pcbnew,9.0.0*%
%TF.CreationDate,2025-03-20T17:00:12-04:00*%
%TF.ProjectId,BigCoilBoard,42696743-6f69-46c4-926f-6172642e6b69,rev?*%
%TF.SameCoordinates,Original*%
%TF.FileFunction,Paste,Top*%
%TF.FilePolarity,Positive*%
%FSLAX46Y46*%
G04 Gerber Fmt 4.6, Leading zero omitted, Abs format (unit mm)*
G04 Created by KiCad (PCBNEW 9.0.0) date 2025-03-20 17:00:12*
%MOMM*%
%LPD*%
G01*
G04 APERTURE LIST*
G04 Aperture macros list*
%AMRoundRect*
0 Rectangle with rounded corners*
0 $1 Rounding radius*
0 $2 $3 $4 $5 $6 $7 $8 $9 X,Y pos of 4 corners*
0 Add a 4 corners polygon primitive as box body*
4,1,4,$2,$3,$4,$5,$6,$7,$8,$9,$2,$3,0*
0 Add four circle primitives for the rounded corners*
1,1,$1+$1,$2,$3*
1,1,$1+$1,$4,$5*
1,1,$1+$1,$6,$7*
1,1,$1+$1,$8,$9*
0 Add four rect primitives between the rounded corners*
20,1,$1+$1,$2,$3,$4,$5,0*
20,1,$1+$1,$4,$5,$6,$7,0*
20,1,$1+$1,$6,$7,$8,$9,0*
20,1,$1+$1,$8,$9,$2,$3,0*%
G04 Aperture macros list end*
%ADD10RoundRect,0.150000X0.150000X-0.512500X0.150000X0.512500X-0.150000X0.512500X-0.150000X-0.512500X0*%
%ADD11RoundRect,0.250000X-0.262500X-0.450000X0.262500X-0.450000X0.262500X0.450000X-0.262500X0.450000X0*%
%ADD12RoundRect,0.250000X0.250000X0.475000X-0.250000X0.475000X-0.250000X-0.475000X0.250000X-0.475000X0*%
%ADD13RoundRect,0.250000X-0.475000X0.250000X-0.475000X-0.250000X0.475000X-0.250000X0.475000X0.250000X0*%
%ADD14RoundRect,0.250000X0.262500X0.450000X-0.262500X0.450000X-0.262500X-0.450000X0.262500X-0.450000X0*%
%ADD15RoundRect,0.250000X-0.450000X0.262500X-0.450000X-0.262500X0.450000X-0.262500X0.450000X0.262500X0*%
%ADD16RoundRect,0.250000X-0.250000X-0.475000X0.250000X-0.475000X0.250000X0.475000X-0.250000X0.475000X0*%
%ADD17RoundRect,0.150000X0.150000X-0.825000X0.150000X0.825000X-0.150000X0.825000X-0.150000X-0.825000X0*%
%ADD18C,3.100000*%
%ADD19RoundRect,0.150000X0.825000X0.150000X-0.825000X0.150000X-0.825000X-0.150000X0.825000X-0.150000X0*%
%ADD20RoundRect,0.150000X-0.587500X-0.150000X0.587500X-0.150000X0.587500X0.150000X-0.587500X0.150000X0*%
%ADD21RoundRect,0.075000X-0.662500X-0.075000X0.662500X-0.075000X0.662500X0.075000X-0.662500X0.075000X0*%
%ADD22RoundRect,0.075000X-0.075000X-0.662500X0.075000X-0.662500X0.075000X0.662500X-0.075000X0.662500X0*%
%ADD23R,1.900000X0.400000*%
%ADD24RoundRect,0.225000X-0.225000X-0.375000X0.225000X-0.375000X0.225000X0.375000X-0.225000X0.375000X0*%
%ADD25RoundRect,0.150000X0.150000X-0.587500X0.150000X0.587500X-0.150000X0.587500X-0.150000X-0.587500X0*%
%ADD26RoundRect,0.250000X0.275000X0.700000X-0.275000X0.700000X-0.275000X-0.700000X0.275000X-0.700000X0*%
%ADD27RoundRect,0.243750X-0.456250X0.243750X-0.456250X-0.243750X0.456250X-0.243750X0.456250X0.243750X0*%
%ADD28RoundRect,0.250000X0.450000X-0.262500X0.450000X0.262500X-0.450000X0.262500X-0.450000X-0.262500X0*%
%ADD29RoundRect,0.250000X0.312500X1.075000X-0.312500X1.075000X-0.312500X-1.075000X0.312500X-1.075000X0*%
%ADD30RoundRect,0.375000X-0.625000X-0.375000X0.625000X-0.375000X0.625000X0.375000X-0.625000X0.375000X0*%
%ADD31RoundRect,0.500000X-0.500000X-1.400000X0.500000X-1.400000X0.500000X1.400000X-0.500000X1.400000X0*%
%ADD32RoundRect,0.150000X-0.150000X0.587500X-0.150000X-0.587500X0.150000X-0.587500X0.150000X0.587500X0*%
%ADD33RoundRect,0.250000X0.475000X-0.250000X0.475000X0.250000X-0.475000X0.250000X-0.475000X-0.250000X0*%
G04 APERTURE END LIST*
D10*
%TO.C,U8*%
X155978680Y-75653680D03*
X156928680Y-75653680D03*
X157878680Y-75653680D03*
X157878680Y-73378680D03*
X155978680Y-73378680D03*
%TD*%
D11*
%TO.C,R16*%
X196909947Y-109530053D03*
X198734947Y-109530053D03*
%TD*%
D12*
%TO.C,C28*%
X152450000Y-60750000D03*
X150550000Y-60750000D03*
%TD*%
%TO.C,C8*%
X178200000Y-86500000D03*
X176300000Y-86500000D03*
%TD*%
D13*
%TO.C,C25*%
X201000000Y-85300000D03*
X201000000Y-87200000D03*
%TD*%
%TO.C,C21*%
X203500000Y-85300000D03*
X203500000Y-87200000D03*
%TD*%
D14*
%TO.C,R21*%
X186412500Y-70750000D03*
X184587500Y-70750000D03*
%TD*%
D15*
%TO.C,R32*%
X194250000Y-81500000D03*
X194250000Y-83325000D03*
%TD*%
D16*
%TO.C,C40*%
X183800000Y-100750000D03*
X185700000Y-100750000D03*
%TD*%
D15*
%TO.C,R7*%
X118770000Y-106067500D03*
X118770000Y-107892500D03*
%TD*%
D17*
%TO.C,U2*%
X205710000Y-89475000D03*
X206980000Y-89475000D03*
X208250000Y-89475000D03*
X209520000Y-89475000D03*
X209520000Y-84525000D03*
X208250000Y-84525000D03*
X206980000Y-84525000D03*
X205710000Y-84525000D03*
%TD*%
D12*
%TO.C,C18*%
X209615000Y-82087500D03*
X207715000Y-82087500D03*
%TD*%
%TO.C,C32*%
X213400000Y-109000000D03*
X211500000Y-109000000D03*
%TD*%
D15*
%TO.C,R8*%
X110500000Y-94087500D03*
X110500000Y-95912500D03*
%TD*%
D14*
%TO.C,R11*%
X209462500Y-96500000D03*
X207637500Y-96500000D03*
%TD*%
D16*
%TO.C,C26*%
X226800000Y-73250000D03*
X228700000Y-73250000D03*
%TD*%
D14*
%TO.C,R19*%
X178734947Y-109280053D03*
X176909947Y-109280053D03*
%TD*%
D18*
%TO.C,J22*%
X182250000Y-54500000D03*
X188120000Y-54500000D03*
X182250000Y-48630000D03*
X188120000Y-48630000D03*
%TD*%
D19*
%TO.C,U7*%
X228475000Y-71155000D03*
X228475000Y-69885000D03*
X228475000Y-68615000D03*
X228475000Y-67345000D03*
X223525000Y-67345000D03*
X223525000Y-68615000D03*
X223525000Y-69885000D03*
X223525000Y-71155000D03*
%TD*%
D14*
%TO.C,R25*%
X151112500Y-79062500D03*
X149287500Y-79062500D03*
%TD*%
D15*
%TO.C,R9*%
X118770000Y-94087500D03*
X118770000Y-95912500D03*
%TD*%
D12*
%TO.C,C5*%
X177750000Y-68500000D03*
X175850000Y-68500000D03*
%TD*%
D20*
%TO.C,Q1*%
X110812500Y-80300000D03*
X110812500Y-82200000D03*
X112687500Y-81250000D03*
%TD*%
D21*
%TO.C,U1*%
X178087500Y-88750000D03*
X178087500Y-89250000D03*
X178087500Y-89750000D03*
X178087500Y-90250000D03*
X178087500Y-90750000D03*
X178087500Y-91250000D03*
X178087500Y-91750000D03*
X178087500Y-92250000D03*
X178087500Y-92750000D03*
X178087500Y-93250000D03*
X178087500Y-93750000D03*
X178087500Y-94250000D03*
D22*
X179500000Y-95662500D03*
X180000000Y-95662500D03*
X180500000Y-95662500D03*
X181000000Y-95662500D03*
X181500000Y-95662500D03*
X182000000Y-95662500D03*
X182500000Y-95662500D03*
X183000000Y-95662500D03*
X183500000Y-95662500D03*
X184000000Y-95662500D03*
X184500000Y-95662500D03*
X185000000Y-95662500D03*
D21*
X186412500Y-94250000D03*
X186412500Y-93750000D03*
X186412500Y-93250000D03*
X186412500Y-92750000D03*
X186412500Y-92250000D03*
X186412500Y-91750000D03*
X186412500Y-91250000D03*
X186412500Y-90750000D03*
X186412500Y-90250000D03*
X186412500Y-89750000D03*
X186412500Y-89250000D03*
X186412500Y-88750000D03*
D22*
X185000000Y-87337500D03*
X184500000Y-87337500D03*
X184000000Y-87337500D03*
X183500000Y-87337500D03*
X183000000Y-87337500D03*
X182500000Y-87337500D03*
X182000000Y-87337500D03*
X181500000Y-87337500D03*
X181000000Y-87337500D03*
X180500000Y-87337500D03*
X180000000Y-87337500D03*
X179500000Y-87337500D03*
%TD*%
D11*
%TO.C,R14*%
X203887500Y-92000000D03*
X205712500Y-92000000D03*
%TD*%
D23*
%TO.C,U3*%
X175250000Y-92200000D03*
X175250000Y-91000000D03*
X175250000Y-89800000D03*
%TD*%
D15*
%TO.C,R33*%
X191750000Y-81412500D03*
X191750000Y-83237500D03*
%TD*%
D20*
%TO.C,D3*%
X211875000Y-96300000D03*
X211875000Y-98200000D03*
X213750000Y-97250000D03*
%TD*%
D24*
%TO.C,D2*%
X118850000Y-78250000D03*
X122150000Y-78250000D03*
%TD*%
D16*
%TO.C,C15*%
X203850000Y-96500000D03*
X205750000Y-96500000D03*
%TD*%
D13*
%TO.C,C11*%
X113770000Y-106050000D03*
X113770000Y-107950000D03*
%TD*%
D25*
%TO.C,Q5*%
X144250000Y-76750000D03*
X146150000Y-76750000D03*
X145200000Y-74875000D03*
%TD*%
D24*
%TO.C,D1*%
X109100000Y-78250000D03*
X112400000Y-78250000D03*
%TD*%
D25*
%TO.C,Q4*%
X149250000Y-76750000D03*
X151150000Y-76750000D03*
X150200000Y-74875000D03*
%TD*%
D11*
%TO.C,R23*%
X215837500Y-96000000D03*
X217662500Y-96000000D03*
%TD*%
D26*
%TO.C,FB1*%
X186825000Y-105000000D03*
X183675000Y-105000000D03*
%TD*%
D27*
%TO.C,D5*%
X191750000Y-77637500D03*
X191750000Y-79512500D03*
%TD*%
D12*
%TO.C,C23*%
X193022447Y-109280053D03*
X191122447Y-109280053D03*
%TD*%
D15*
%TO.C,R34*%
X189250000Y-81500000D03*
X189250000Y-83325000D03*
%TD*%
D28*
%TO.C,R2*%
X108187500Y-82162500D03*
X108187500Y-80337500D03*
%TD*%
D15*
%TO.C,R1*%
X118750000Y-118168750D03*
X118750000Y-119993750D03*
%TD*%
D14*
%TO.C,R20*%
X182662500Y-68500000D03*
X180837500Y-68500000D03*
%TD*%
%TO.C,R29*%
X141200000Y-79062500D03*
X139375000Y-79062500D03*
%TD*%
D11*
%TO.C,R17*%
X187409947Y-109280053D03*
X189234947Y-109280053D03*
%TD*%
D20*
%TO.C,Q2*%
X120750000Y-80350000D03*
X120750000Y-82250000D03*
X122625000Y-81300000D03*
%TD*%
D28*
%TO.C,R18*%
X184822447Y-109192553D03*
X184822447Y-107367553D03*
%TD*%
D11*
%TO.C,R24*%
X144287500Y-72562500D03*
X146112500Y-72562500D03*
%TD*%
D27*
%TO.C,D6*%
X189250000Y-77725000D03*
X189250000Y-79600000D03*
%TD*%
D18*
%TO.C,J20*%
X156630000Y-54500000D03*
X162500000Y-54500000D03*
X156630000Y-48630000D03*
X162500000Y-48630000D03*
%TD*%
D13*
%TO.C,C12*%
X122020000Y-106030000D03*
X122020000Y-107930000D03*
%TD*%
D27*
%TO.C,D4*%
X194250000Y-77725000D03*
X194250000Y-79600000D03*
%TD*%
D16*
%TO.C,C42*%
X184600000Y-68500000D03*
X186500000Y-68500000D03*
%TD*%
D11*
%TO.C,R13*%
X204002500Y-79837500D03*
X205827500Y-79837500D03*
%TD*%
D12*
%TO.C,C3*%
X198200000Y-58000000D03*
X196300000Y-58000000D03*
%TD*%
D13*
%TO.C,C14*%
X122020000Y-94050000D03*
X122020000Y-95950000D03*
%TD*%
D12*
%TO.C,C33*%
X217450000Y-109000000D03*
X215550000Y-109000000D03*
%TD*%
D28*
%TO.C,R3*%
X118000000Y-82262500D03*
X118000000Y-80437500D03*
%TD*%
D14*
%TO.C,R31*%
X136112500Y-79062500D03*
X134287500Y-79062500D03*
%TD*%
D13*
%TO.C,C31*%
X201500000Y-92100000D03*
X201500000Y-94000000D03*
%TD*%
D12*
%TO.C,C43*%
X115450000Y-110000000D03*
X113550000Y-110000000D03*
%TD*%
%TO.C,C44*%
X115450000Y-112250000D03*
X113550000Y-112250000D03*
%TD*%
D29*
%TO.C,R5*%
X221212500Y-68500000D03*
X218287500Y-68500000D03*
%TD*%
D30*
%TO.C,U12*%
X155350000Y-60450000D03*
X155350000Y-62750000D03*
D31*
X161650000Y-62750000D03*
D30*
X155350000Y-65050000D03*
%TD*%
D18*
%TO.C,J21*%
X168380000Y-54500000D03*
X174250000Y-54500000D03*
X168380000Y-48630000D03*
X174250000Y-48630000D03*
%TD*%
D25*
%TO.C,Q6*%
X139287500Y-76750000D03*
X141187500Y-76750000D03*
X140237500Y-74875000D03*
%TD*%
D11*
%TO.C,R28*%
X139375000Y-72562500D03*
X141200000Y-72562500D03*
%TD*%
%TO.C,R15*%
X204002500Y-82087500D03*
X205827500Y-82087500D03*
%TD*%
D32*
%TO.C,Q3*%
X182522447Y-107405053D03*
X180622447Y-107405053D03*
X181572447Y-109280053D03*
%TD*%
D17*
%TO.C,U13*%
X213845000Y-105975000D03*
X215115000Y-105975000D03*
X216385000Y-105975000D03*
X217655000Y-105975000D03*
X217655000Y-101025000D03*
X216385000Y-101025000D03*
X215115000Y-101025000D03*
X213845000Y-101025000D03*
%TD*%
D18*
%TO.C,J23*%
X194250000Y-54500000D03*
X200120000Y-54500000D03*
X194250000Y-48630000D03*
X200120000Y-48630000D03*
%TD*%
D16*
%TO.C,C1*%
X196300000Y-60500000D03*
X198200000Y-60500000D03*
%TD*%
D14*
%TO.C,R26*%
X146112500Y-79062500D03*
X144287500Y-79062500D03*
%TD*%
D33*
%TO.C,C10*%
X187000000Y-86700000D03*
X187000000Y-84800000D03*
%TD*%
D13*
%TO.C,C4*%
X122000000Y-118131250D03*
X122000000Y-120031250D03*
%TD*%
D16*
%TO.C,C41*%
X183800000Y-98750000D03*
X185700000Y-98750000D03*
%TD*%
D13*
%TO.C,C13*%
X113750000Y-94050000D03*
X113750000Y-95950000D03*
%TD*%
D16*
%TO.C,C19*%
X207715000Y-79837500D03*
X209615000Y-79837500D03*
%TD*%
D12*
%TO.C,C27*%
X152450000Y-63250000D03*
X150550000Y-63250000D03*
%TD*%
D33*
%TO.C,C36*%
X209250000Y-110700000D03*
X209250000Y-108800000D03*
%TD*%
D16*
%TO.C,C9*%
X186800000Y-96750000D03*
X188700000Y-96750000D03*
%TD*%
D29*
%TO.C,R4*%
X221212500Y-72000000D03*
X218287500Y-72000000D03*
%TD*%
D14*
%TO.C,R12*%
X209577500Y-77587500D03*
X207752500Y-77587500D03*
%TD*%
D16*
%TO.C,C20*%
X203965000Y-77587500D03*
X205865000Y-77587500D03*
%TD*%
D12*
%TO.C,C22*%
X203272447Y-109530053D03*
X201372447Y-109530053D03*
%TD*%
D11*
%TO.C,R30*%
X134375000Y-72562500D03*
X136200000Y-72562500D03*
%TD*%
D25*
%TO.C,Q7*%
X134250000Y-76750000D03*
X136150000Y-76750000D03*
X135200000Y-74875000D03*
%TD*%
D16*
%TO.C,C34*%
X215800000Y-98250000D03*
X217700000Y-98250000D03*
%TD*%
D15*
%TO.C,R6*%
X110520000Y-106087500D03*
X110520000Y-107912500D03*
%TD*%
D16*
%TO.C,C38*%
X211800000Y-94000000D03*
X213700000Y-94000000D03*
%TD*%
D11*
%TO.C,R10*%
X203887500Y-94250000D03*
X205712500Y-94250000D03*
%TD*%
%TO.C,R27*%
X149287500Y-72562500D03*
X151112500Y-72562500D03*
%TD*%
D16*
%TO.C,C39*%
X183800000Y-102750000D03*
X185700000Y-102750000D03*
%TD*%
D12*
%TO.C,C17*%
X209500000Y-92000000D03*
X207600000Y-92000000D03*
%TD*%
D16*
%TO.C,C16*%
X207600000Y-94250000D03*
X209500000Y-94250000D03*
%TD*%
M02*
