M48
; DRILL file {KiCad 8.0.4} date 2025-02-13T16:57:44-0500
; FORMAT={-:-/ absolute / inch / decimal}
; #@! TF.CreationDate,2025-02-13T16:57:44-05:00
; #@! TF.GenerationSoftware,Kicad,Pcbnew,8.0.4
; #@! TF.FileFunction,Plated,1,2,PTH
FMAT,2
INCH
; #@! TA.AperFunction,Plated,PTH,ViaDrill
T1C0.0118
; #@! TA.AperFunction,Plated,PTH,ComponentDrill
T2C0.0197
; #@! TA.AperFunction,Plated,PTH,ComponentDrill
T3C0.0236
; #@! TA.AperFunction,Plated,PTH,ComponentDrill
T4C0.0256
; #@! TA.AperFunction,Plated,PTH,ComponentDrill
T5C0.0315
; #@! TA.AperFunction,Plated,PTH,ComponentDrill
T6C0.0350
; #@! TA.AperFunction,Plated,PTH,ComponentDrill
T7C0.0394
; #@! TA.AperFunction,Plated,PTH,ComponentDrill
T8C0.0433
; #@! TA.AperFunction,Plated,PTH,ComponentDrill
T9C0.0469
; #@! TA.AperFunction,Plated,PTH,ComponentDrill
T10C0.0728
; #@! TA.AperFunction,Plated,PTH,ComponentDrill
T11C0.1063
; #@! TA.AperFunction,Plated,PTH,ComponentDrill
T12C0.1693
%
G90
G05
T1
X4.3996Y-3.7776
X4.3996Y-4.25
X4.4168Y-3.2382
X4.7244Y-3.7776
X4.7244Y-4.2492
X4.7343Y-4.7244
X4.8031Y-3.2382
X5.3575Y-4.4619
X5.3602Y-2.9665
X5.5586Y-2.9651
X5.7539Y-2.9665
X5.8268Y-2.2638
X5.9252Y-2.4409
X5.9508Y-2.9665
X6.1452Y-3.2714
X6.1811Y-2.3819
X6.2106Y-3.9961
X6.2205Y-2.3819
X6.2598Y-2.3819
X6.2992Y-2.4705
X6.3094Y-4.3493
X6.8307Y-3.5827
X6.8591Y-4.0933
X6.8602Y-3.0118
X6.8602Y-3.3563
X6.8602Y-4.1535
X6.8627Y-4.3508
X6.8701Y-4.2126
X6.8863Y-4.1189
X6.8898Y-4.1732
X6.9587Y-3.9469
X6.9685Y-3.4547
X7.0551Y-3.3915
X7.0933Y-3.5138
X7.1161Y-3.8484
X7.1485Y-4.252
X7.185Y-3.7106
X7.1949Y-3.9469
X7.1949Y-4.0453
X7.2146Y-3.376
X7.2736Y-3.8189
X7.2835Y-3.5236
X7.3425Y-4.0453
X7.3524Y-3.9469
X7.3622Y-3.2972
X7.4213Y-4.0453
X7.4311Y-4.0846
X7.4311Y-4.1535
X7.4311Y-4.2126
X7.4606Y-4.124
X7.4606Y-4.1831
X7.4902Y-3.8091
X7.5Y-3.8583
X7.5025Y-3.06
X7.5394Y-4.1831
X7.5984Y-3.06
X7.628Y-3.5531
X7.6378Y-4.3012
X7.7165Y-3.2677
X7.7559Y-3.3071
X7.8346Y-3.3661
X7.8514Y-3.7234
X7.8543Y-3.5236
X7.8937Y-3.5797
X7.8937Y-3.6811
X7.9626Y-3.0118
X8.0118Y-3.4744
X8.0512Y-4.311
X8.0709Y-3.0118
X8.1732Y-3.7554
X8.1791Y-3.1004
X8.2874Y-4.2815
X8.2972Y-4.3602
X8.4626Y-3.8661
X8.5191Y-4.1089
X8.6535Y-2.8337
X8.9173Y-2.7165
X8.9272Y-2.8346
T2
X4.9942Y-2.7413
X4.9942Y-4.7098
X5.0176Y-2.6849
X5.0176Y-2.7977
X5.0176Y-4.6534
X5.0176Y-4.7662
X5.074Y-2.6616
X5.074Y-2.821
X5.074Y-4.6301
X5.074Y-4.7895
X5.1303Y-2.6849
X5.1303Y-2.7977
X5.1303Y-4.6534
X5.1303Y-4.7662
X5.1537Y-2.7413
X5.1537Y-4.7098
X6.6478Y-2.7413
X6.6478Y-4.7071
X6.6711Y-2.6849
X6.6711Y-2.7977
X6.6711Y-4.6507
X6.6711Y-4.7635
X6.7275Y-2.6616
X6.7275Y-2.821
X6.7275Y-4.6274
X6.7275Y-4.7868
X6.7839Y-2.6849
X6.7839Y-2.7977
X6.7839Y-4.6507
X6.7839Y-4.7635
X6.8072Y-2.7413
X6.8072Y-4.7071
T3
X4.2431Y-4.6457
X4.2443Y-2.0067
X4.2803Y-4.5559
X4.2803Y-4.7354
X4.2815Y-1.9169
X4.2815Y-2.0965
X4.3701Y-4.5187
X4.3701Y-4.7726
X4.3713Y-1.8797
X4.3713Y-2.1336
X4.4599Y-4.5559
X4.4599Y-4.7354
X4.4611Y-1.9169
X4.4611Y-2.0965
X4.497Y-4.6457
X4.4982Y-2.0067
X8.751Y-4.6457
X8.7522Y-2.0091
X8.7882Y-4.5559
X8.7882Y-4.7354
X8.7894Y-1.9193
X8.7894Y-2.0989
X8.878Y-4.5187
X8.878Y-4.7726
X8.8792Y-1.8821
X8.8792Y-2.136
X8.9677Y-4.5559
X8.9677Y-4.7354
X8.9689Y-1.9193
X8.9689Y-2.0989
X9.0049Y-4.6457
X9.0061Y-2.0091
T4
X7.0933Y-3.1201
X7.0933Y-3.1701
X7.1433Y-3.1201
X7.1433Y-3.1701
X7.1933Y-3.1201
X7.1933Y-3.1701
X7.2433Y-3.1201
X7.2433Y-3.1701
X7.2933Y-3.1201
X7.2933Y-3.1701
T5
X7.0083Y-4.69
X7.1083Y-4.69
X7.3844Y-4.69
X7.4594Y-4.69
X7.5344Y-4.69
X7.7856Y-4.69
X7.8606Y-4.69
X7.9356Y-4.69
X8.363Y-3.563
X8.763Y-3.563
T6
X5.1378Y-2.4016
X5.3346Y-2.4016
X5.5741Y-2.4016
X5.771Y-2.4016
X7.7887Y-2.7657
X7.9856Y-2.7657
X8.2316Y-2.7657
X8.2677Y-4.521
X8.2677Y-4.7178
X8.4285Y-2.7657
X8.8287Y-4.0486
X8.8287Y-4.2454
T7
X5.6417Y-3.9716
X5.7417Y-3.9716
X5.8417Y-3.9716
X6.1452Y-2.7511
X6.2452Y-2.7511
X6.3141Y-4.0897
X6.411Y-2.7511
X6.4141Y-4.0897
X6.511Y-2.7511
X6.5141Y-4.0897
X6.9971Y-2.357
X7.0971Y-2.357
X7.3971Y-2.357
X7.4971Y-2.357
X7.5971Y-2.357
X8.3465Y-2.0374
X8.3465Y-2.3327
T8
X4.2704Y-2.9658
X4.4554Y-2.2375
X4.4554Y-2.5131
X4.4554Y-2.9658
X4.6542Y-2.9658
X4.8393Y-2.2375
X4.8393Y-2.5131
X4.8393Y-2.9658
X8.5553Y-4.4866
X8.5553Y-4.5866
X8.5553Y-4.6866
T9
X4.3504Y-3.5138
X4.3504Y-3.987
X4.4504Y-3.5138
X4.4504Y-3.987
X4.6638Y-1.998
X4.6752Y-3.5146
X4.6752Y-3.9862
X4.6752Y-4.4619
X4.7638Y-1.998
X4.7752Y-3.5146
X4.7752Y-3.9862
X4.7752Y-4.4619
X4.9213Y-1.998
X5.0213Y-1.998
X5.1756Y-1.998
X5.2756Y-1.998
X5.3756Y-1.998
X5.4756Y-1.998
X5.6283Y-1.998
X5.7283Y-1.998
X5.8283Y-1.998
X5.9283Y-1.998
X6.524Y-2.4606
X6.624Y-2.4606
X6.724Y-2.4606
X6.824Y-2.4606
X8.4539Y-3.0882
X8.4539Y-3.1882
X8.4539Y-3.2882
X8.4539Y-3.3882
X8.6795Y-3.7795
X8.7795Y-3.7795
X8.8386Y-3.089
X8.8386Y-3.189
X8.8795Y-3.7795
T10
X6.1665Y-1.9146
X6.1665Y-2.1457
X6.3976Y-1.9146
X6.3976Y-2.1457
X6.6291Y-1.9146
X6.6291Y-2.1457
X6.8602Y-1.9146
X6.8602Y-2.1457
X7.1752Y-1.9146
X7.1752Y-2.1457
X7.4063Y-1.9146
X7.4063Y-2.1457
X7.6476Y-1.9146
X7.6476Y-2.1457
X7.8787Y-1.9146
X7.8787Y-2.1457
T11
X5.074Y-2.7413
X5.074Y-4.7098
X6.7275Y-2.7413
X6.7275Y-4.7098
T12
X4.3701Y-4.6457
X4.3713Y-2.0067
X8.878Y-4.6457
X8.8792Y-2.0091
M30
